<?xml version="1.0" encoding="UTF-8"?>
<svg version="1.1" xmlns="http://www.w3.org/2000/svg" width="256" height="256">
<path d="M0 0 C2.25 1.8125 2.25 1.8125 3.125 4.5 C3.16625 5.263125 3.2075 6.02625 3.25 6.8125 C-1.1352919 9.78318161 -5.73491285 11.27191767 -10.75 12.8125 C-10.069375 13.34875 -9.38875 13.885 -8.6875 14.4375 C-6.75 16.8125 -6.75 16.8125 -6.73828125 19.67578125 C-8.0699771 23.80455256 -10.45091927 25.22768967 -14 27.375 C-27.46005999 35.82912756 -35.22944009 49.19437883 -39.0625 64.5 C-41.03860237 75.18630119 -38.7655507 83.70950874 -33.5 93.1875 C-30.21691095 97.92452517 -26.02233724 101.21904169 -20.25349236 102.26525688 C-17.3810865 102.43948502 -14.54903301 102.45423073 -11.67163086 102.41186523 C-10.58930679 102.41580795 -9.50698273 102.41975067 -8.39186096 102.42381287 C-4.83237661 102.43049788 -1.27418983 102.40141212 2.28515625 102.37109375 C4.7680181 102.36684074 7.25088394 102.36451475 9.73374939 102.36402893 C14.92953597 102.35787179 20.12489007 102.33521005 25.32055664 102.29956055 C31.9740537 102.25426543 38.62694938 102.23953264 45.28061771 102.23582363 C50.40477845 102.23139079 55.52885749 102.21607969 60.65298271 102.1969471 C63.10613777 102.18808087 65.55930149 102.18134314 68.01246834 102.17678642 C71.44213565 102.16772319 74.87145329 102.14531407 78.30102539 102.11889648 C79.81534653 102.11789948 79.81534653 102.11789948 81.36026001 102.11688232 C89.81351232 102.02722038 95.9021675 100.97235623 102.2578125 95.07421875 C109.36174426 87.00916681 113.42514592 77.47668486 114.25 66.8125 C114.33121094 65.77802734 114.33121094 65.77802734 114.4140625 64.72265625 C114.84705988 53.83867669 111.34522849 44.66937356 105.25 35.8125 C104.6725 34.884375 104.095 33.95625 103.5 33 C100.5465215 30.12856257 97.24670452 28.80388354 93.53515625 27.08203125 C90.6918132 25.50239622 89.45291925 23.81979811 88.25 20.8125 C90.23 18.3375 90.23 18.3375 92.25 15.8125 C86.97 14.1625 81.69 12.5125 76.25 10.8125 C75.92 9.1625 75.59 7.5125 75.25 5.8125 C81.71620261 0.18164414 91.27939186 0.56311771 99.4375 1 C115.37978897 2.53767089 127.15403684 9.41106694 137.4375 21.5625 C149.05296866 36.6170584 151.98494336 56.18310472 149.7890625 74.69921875 C146.66690305 92.5689902 136.64060249 105.63044838 124.21875 118.33984375 C120.66845236 122.79884853 121.11291722 127.7256636 121.0390625 133.26171875 C121.01336738 134.75212907 120.98688674 136.242526 120.9597168 137.73291016 C120.94645355 138.51079895 120.93319031 139.28868774 120.91952515 140.09014893 C120.51030345 162.23860725 119.20299708 184.36467152 113.25 205.8125 C113.07243164 206.45638672 112.89486328 207.10027344 112.71191406 207.76367188 C108.88757445 221.08409899 102.65832543 229.23417888 90.61328125 236.125 C78.30350333 242.30133457 65.23786243 244.11787919 51.58984375 244.1484375 C50.51988663 244.1550943 49.4499295 244.1617511 48.34754944 244.16860962 C46.09800921 244.1786613 43.84843961 244.18342898 41.59887695 244.18310547 C38.21969417 244.18745853 34.84184166 244.22380557 31.46289062 244.26171875 C11.08100207 244.36702712 -8.9218069 243.11348729 -24.36328125 228.375 C-32.75516897 219.36505181 -36.88166951 209.56723331 -39.75 197.8125 C-39.93546387 197.05437012 -40.12092773 196.29624023 -40.31201172 195.51513672 C-44.02575575 179.82010845 -45.97389242 163.63891168 -45.75 147.5 C-45.04564235 131.33894663 -45.04564235 131.33894663 -51.875 117.5 C-52.67808594 116.7471875 -53.48117188 115.994375 -54.30859375 115.21875 C-66.33708237 103.36347162 -73.91467423 83.93427213 -74.25 67.1875 C-74.15396373 51.65404028 -68.91823702 39.13281851 -59.75 26.8125 C-59.20730469 26.06742188 -58.66460937 25.32234375 -58.10546875 24.5546875 C-45.22275485 8.44314151 -21.01013238 -6.65320859 0 0 Z " fill="#EDE8E9" transform="translate(89.75,6.1875)"/>
<path d="M0 0 C2.25 1.8125 2.25 1.8125 3.125 4.5 C3.16625 5.263125 3.2075 6.02625 3.25 6.8125 C-1.1352919 9.78318161 -5.73491285 11.27191767 -10.75 12.8125 C-10.069375 13.34875 -9.38875 13.885 -8.6875 14.4375 C-6.75 16.8125 -6.75 16.8125 -6.73828125 19.67578125 C-8.0699771 23.80455256 -10.45091927 25.22768967 -14 27.375 C-27.46005999 35.82912756 -35.22944009 49.19437883 -39.0625 64.5 C-41.03860237 75.18630119 -38.7655507 83.70950874 -33.5 93.1875 C-30.21691095 97.92452517 -26.02233724 101.21904169 -20.25349236 102.26525688 C-17.3810865 102.43948502 -14.54903301 102.45423073 -11.67163086 102.41186523 C-10.58930679 102.41580795 -9.50698273 102.41975067 -8.39186096 102.42381287 C-4.83237661 102.43049788 -1.27418983 102.40141212 2.28515625 102.37109375 C4.7680181 102.36684074 7.25088394 102.36451475 9.73374939 102.36402893 C14.92953597 102.35787179 20.12489007 102.33521005 25.32055664 102.29956055 C31.9740537 102.25426543 38.62694938 102.23953264 45.28061771 102.23582363 C50.40477845 102.23139079 55.52885749 102.21607969 60.65298271 102.1969471 C63.10613777 102.18808087 65.55930149 102.18134314 68.01246834 102.17678642 C71.44213565 102.16772319 74.87145329 102.14531407 78.30102539 102.11889648 C79.81534653 102.11789948 79.81534653 102.11789948 81.36026001 102.11688232 C89.81351232 102.02722038 95.9021675 100.97235623 102.2578125 95.07421875 C109.36174426 87.00916681 113.42514592 77.47668486 114.25 66.8125 C114.33121094 65.77802734 114.33121094 65.77802734 114.4140625 64.72265625 C114.84705988 53.83867669 111.34522849 44.66937356 105.25 35.8125 C104.6725 34.884375 104.095 33.95625 103.5 33 C100.5465215 30.12856257 97.24670452 28.80388354 93.53515625 27.08203125 C90.6918132 25.50239622 89.45291925 23.81979811 88.25 20.8125 C90.23 18.3375 90.23 18.3375 92.25 15.8125 C86.97 14.1625 81.69 12.5125 76.25 10.8125 C75.92 9.1625 75.59 7.5125 75.25 5.8125 C81.71620261 0.18164414 91.27939186 0.56311771 99.4375 1 C115.37978897 2.53767089 127.15403684 9.41106694 137.4375 21.5625 C149.05296866 36.6170584 151.98494336 56.18310472 149.7890625 74.69921875 C146.66690305 92.5689902 136.64060249 105.63044838 124.21875 118.33984375 C120.66845236 122.79884853 121.11291722 127.7256636 121.0390625 133.26171875 C121.01336738 134.75212907 120.98688674 136.242526 120.9597168 137.73291016 C120.94645355 138.51079895 120.93319031 139.28868774 120.91952515 140.09014893 C120.51030345 162.23860725 119.20299708 184.36467152 113.25 205.8125 C113.07243164 206.45638672 112.89486328 207.10027344 112.71191406 207.76367188 C108.88757445 221.08409899 102.65832543 229.23417888 90.61328125 236.125 C78.30350333 242.30133457 65.23786243 244.11787919 51.58984375 244.1484375 C50.51988663 244.1550943 49.4499295 244.1617511 48.34754944 244.16860962 C46.09800921 244.1786613 43.84843961 244.18342898 41.59887695 244.18310547 C38.21969417 244.18745853 34.84184166 244.22380557 31.46289062 244.26171875 C11.08100207 244.36702712 -8.9218069 243.11348729 -24.36328125 228.375 C-32.75516897 219.36505181 -36.88166951 209.56723331 -39.75 197.8125 C-39.93546387 197.05437012 -40.12092773 196.29624023 -40.31201172 195.51513672 C-44.02575575 179.82010845 -45.97389242 163.63891168 -45.75 147.5 C-45.04564235 131.33894663 -45.04564235 131.33894663 -51.875 117.5 C-52.67808594 116.7471875 -53.48117188 115.994375 -54.30859375 115.21875 C-66.33708237 103.36347162 -73.91467423 83.93427213 -74.25 67.1875 C-74.15396373 51.65404028 -68.91823702 39.13281851 -59.75 26.8125 C-59.20730469 26.06742188 -58.66460937 25.32234375 -58.10546875 24.5546875 C-45.22275485 8.44314151 -21.01013238 -6.65320859 0 0 Z M-55.75 27.8125 C-65.48154898 39.61535115 -68.17222738 52.78801844 -68.25 67.6875 C-68.25636475 68.73309082 -68.26272949 69.77868164 -68.26928711 70.85595703 C-67.98007185 88.44639248 -59.96666394 101.87068245 -47.59008789 113.91430664 C-40.07468048 122.35652798 -40.62102109 131.26545978 -40.57791138 142.07659912 C-40.55186316 147.33462455 -40.39404393 152.5883308 -40.234375 157.84375 C-40.18978905 159.39520218 -40.18978905 159.39520218 -40.14430237 160.97799683 C-39.85072344 169.68977482 -38.88620119 178.12039637 -37.3125 186.6875 C-37.10665283 187.8120459 -36.90080566 188.9365918 -36.6887207 190.09521484 C-35.48461273 196.18425044 -33.84423473 201.9749435 -31.75 207.8125 C-31.46898437 208.70839844 -31.18796875 209.60429687 -30.8984375 210.52734375 C-27.29271801 220.8892346 -19.38068506 228.75344903 -9.75 233.8125 C5.04090579 240.41317745 22.8423049 239.98394415 38.6875 239.9375 C40.00298828 239.94136719 41.31847656 239.94523438 42.67382812 239.94921875 C54.31180876 239.9377017 65.71716973 239.69399668 77 236.625 C77.8156543 236.40432861 78.63130859 236.18365723 79.47167969 235.95629883 C90.15460742 232.89133129 97.8732965 227.14035214 103.6171875 217.5234375 C106.43086593 211.87860438 108.24412212 205.93073457 109.9375 199.875 C110.14004395 199.17979248 110.34258789 198.48458496 110.55126953 197.76831055 C114.69576017 181.95944654 114.627363 164.86379173 115.3125 148.625 C115.42917716 145.92735622 115.54753524 143.22981367 115.66929626 140.53239441 C115.74370181 138.87849042 115.81520989 137.22445212 115.8830719 135.57026672 C116.05544377 131.68352071 116.29917229 127.8093121 116.66088867 123.93530273 C116.72757248 123.21857895 116.79425629 122.50185516 116.86296082 121.76341248 C117.51259255 118.48887411 119.31536975 116.50754975 121.5 114.0625 C122.26828125 113.18078125 123.0365625 112.2990625 123.828125 111.390625 C125.47613565 109.63629109 127.15482246 107.91038659 128.859375 106.2109375 C135.13174312 99.91807144 138.93175704 93.01440286 142.25 84.8125 C142.51329102 84.2337915 142.77658203 83.65508301 143.04785156 83.05883789 C145.44929754 77.42911356 145.7177289 72.3234783 145.625 66.25 C145.61412354 65.28271973 145.60324707 64.31543945 145.59204102 63.31884766 C145.29638457 49.88377271 143.04016037 39.04520011 135.25 27.8125 C134.69054687 26.98878906 134.13109375 26.16507813 133.5546875 25.31640625 C126.30323054 15.31614119 116.83805034 9.38647325 104.921875 6.1875 C101.18938269 5.66364143 97.51417919 5.66799648 93.75 5.6875 C93.00363281 5.68363281 92.25726563 5.67976562 91.48828125 5.67578125 C87.60860414 5.68264794 84.03919102 5.86520224 80.25 6.8125 C80.25 7.4725 80.25 8.1325 80.25 8.8125 C80.92804688 8.89886719 81.60609375 8.98523438 82.3046875 9.07421875 C89.16148511 10.10938626 95.51590949 11.750385 101.25 15.8125 C102.52734375 17.9765625 102.52734375 17.9765625 103.25 19.8125 C100.61 19.8125 97.97 19.8125 95.25 19.8125 C95.25 21.1325 95.25 22.4525 95.25 23.8125 C96.219375 24.10125 97.18875 24.39 98.1875 24.6875 C107.33856875 28.65172816 113.45810508 38.99634432 117.25 47.8125 C121.00732723 61.00896637 118.53593394 75.6852356 112.375 87.5625 C107.08377039 96.79290054 101.06620689 102.92335247 90.80886841 106.19715691 C86.25785573 107.29156028 81.75041179 107.25462235 77.08984375 107.24829102 C75.47095749 107.26340477 75.47095749 107.26340477 73.81936646 107.27882385 C70.27530375 107.30716703 66.73166876 107.31317288 63.1875 107.31640625 C60.71085437 107.32605429 58.23421045 107.33614728 55.75756836 107.34666443 C50.5762943 107.36458987 45.39517005 107.37018888 40.21386719 107.3684082 C33.58612583 107.36810299 26.95934616 107.40911461 20.33183289 107.46072483 C15.22045504 107.49412855 10.10930906 107.50016461 4.99783325 107.49857903 C2.55466385 107.50211068 0.1114879 107.51533273 -2.33157349 107.53857613 C-5.7516783 107.56807897 -9.16970312 107.5593072 -12.58984375 107.54125977 C-14.09102249 107.56654755 -14.09102249 107.56654755 -15.62252808 107.59234619 C-23.71092533 107.48427082 -28.70659511 104.60905403 -34.53794861 99.13370609 C-41.0293047 92.43520798 -44.04978745 84.56364417 -44.125 75.3125 C-44.02152843 72.81151647 -43.89793447 70.31124776 -43.75 67.8125 C-43.75128906 66.85214844 -43.75257812 65.89179687 -43.75390625 64.90234375 C-43.44354114 52.50599602 -35.78002671 41.72231051 -27.75 32.8125 C-27.18539062 32.16667969 -26.62078125 31.52085938 -26.0390625 30.85546875 C-21.59726876 26.0695924 -16.44605374 22.94131825 -10.75 19.8125 C-11.245 18.8225 -11.245 18.8225 -11.75 17.8125 C-13.87576782 17.34598793 -13.87576782 17.34598793 -16.3125 17.1875 C-17.13878906 17.11273438 -17.96507812 17.03796875 -18.81640625 16.9609375 C-19.45449219 16.91195313 -20.09257813 16.86296875 -20.75 16.8125 C-21.245 14.8325 -21.245 14.8325 -21.75 12.8125 C-21.110625 12.565 -20.47125 12.3175 -19.8125 12.0625 C-17.28227861 11.02975658 -14.80128031 9.93917757 -12.3125 8.8125 C-8.84659439 7.25921789 -5.38469535 5.9308678 -1.75 4.8125 C-1.75 4.4825 -1.75 4.1525 -1.75 3.8125 C-24.48547563 2.76182333 -40.33059235 11.57796948 -55.75 27.8125 Z " fill="#090809" transform="translate(89.75,6.1875)"/>
<path d="M0 0 C5.88562306 2.97888803 8.01289005 5.91968588 10.23046875 12.12890625 C12.49859574 19.83736583 11.84227543 27.60875995 8.5625 34.8984375 C5.79545295 39.53182128 2.1649112 42.20373812 -2.64453125 44.50390625 C-8.83079778 45.74115956 -15.00659778 45.94906518 -20.76953125 43.12890625 C-28.14871601 38.06560599 -31.00916928 32.40999217 -33.76953125 24.12890625 C-34.13232911 16.99388162 -33.622797 11.08254854 -29.76953125 4.94140625 C-21.29719923 -4.15389136 -10.77129848 -4.79281033 0 0 Z " fill="#030303" transform="translate(179.76953125,176.87109375)"/>
<path d="M0 0 C5.11409195 4.54585951 9.35346988 9.22758687 10.296875 16.19140625 C10.693449 23.23059471 8.63908749 28.06532534 5 34 C4.4225 34.94875 3.845 35.8975 3.25 36.875 C-1.88347053 41.72327772 -7.52888374 43.27983238 -14.5 43.6875 C-20.40025074 43.48760833 -23.77502448 42.01638406 -28.125 38.07421875 C-33.9333023 31.64878433 -36.29985919 25.98082777 -36.14453125 17.3671875 C-35.74655041 10.84890663 -34.22349462 6.30439424 -29.7109375 1.47265625 C-21.27718532 -5.78653227 -8.99142142 -5.96212279 0 0 Z " fill="#030303" transform="translate(101,180)"/>
<path d="M0 0 C11.20271627 8.76734317 18.57498196 22.14234307 20.96484375 36.03125 C23.16251069 54.46930312 21.50145072 69.51556324 10.42578125 84.8984375 C9.43578125 85.3934375 9.43578125 85.3934375 8.42578125 85.8984375 C11.13726724 70.22566387 11.13726724 70.22566387 13.05078125 65.2109375 C17.69106519 52.13377366 14.37260804 40.8694396 8.67578125 28.7734375 C2.87854595 17.73247178 -5.15849321 4.88920642 -17.57421875 0.8984375 C-19.49154342 0.41910633 -21.40952485 -0.05860836 -23.3359375 -0.5 C-26.01141906 -1.21906485 -28.54758182 -2.17941125 -31.13671875 -3.1640625 C-35.34132942 -4.7393275 -39.11004378 -5.70474695 -43.57421875 -6.1015625 C-43.57421875 -6.7615625 -43.57421875 -7.4215625 -43.57421875 -8.1015625 C-28.33877519 -11.76163976 -12.85543778 -8.81834661 0 0 Z " fill="#F3F2F3" transform="translate(213.57421875,21.1015625)"/>
<path d="M0 0 C2.64 0 5.28 0 8 0 C8 0.66 8 1.32 8 2 C7.34 2 6.68 2 6 2 C6 2.66 6 3.32 6 4 C4.02 4 2.04 4 0 4 C0 2.68 0 1.36 0 0 Z " fill="#CECDCE" transform="translate(185,26)"/>
<path d="M0 0 C2 4 2 4 1.125 6.75 C0.75375 7.4925 0.3825 8.235 0 9 C-0.99 9 -1.98 9 -3 9 C-2.01 6.03 -1.02 3.06 0 0 Z " fill="#D2D2D2" transform="translate(206,85)"/>
</svg>
